<svg width="91" height="94" viewBox="0 0 91 94" fill="none" xmlns="http://www.w3.org/2000/svg">
<path d="M3.94349 82.25V73.2417C3.94349 71.0222 4.44425 69.1781 5.44578 67.7094C6.4473 66.2406 7.85569 65.0493 9.67095 64.1354C13.0511 62.4382 16.666 61.0347 20.5156 59.925C24.3652 58.8153 28.7312 58.2604 33.6136 58.2604C38.496 58.2604 42.862 58.8153 46.7116 59.925C50.5612 61.0347 54.1761 62.4382 57.5562 64.1354C59.3715 65.0493 60.7799 66.2406 61.7814 67.7094C62.7829 69.1781 63.2837 71.0222 63.2837 73.2417V82.25H3.94349ZM9.57705 76.375H57.6501V73.2417C57.6501 72.2625 57.3841 71.4628 56.852 70.8427C56.32 70.2226 55.6784 69.7493 54.9272 69.4229C52.2356 68.1826 49.2311 66.9913 45.9135 65.849C42.596 64.7066 38.496 64.1354 33.6136 64.1354C28.7312 64.1354 24.6312 64.7066 21.3136 65.849C17.9961 66.9913 14.9915 68.1826 12.2999 69.4229C11.5488 69.7493 10.9072 70.2226 10.3751 70.8427C9.84308 71.4628 9.57705 72.2625 9.57705 73.2417V76.375ZM33.6136 52.3854C29.4823 52.3854 26.1022 50.9819 23.4732 48.175C20.8442 45.3681 19.5297 41.8757 19.5297 37.6979H18.5908C18.09 37.6979 17.6518 37.5021 17.2763 37.1104C16.9007 36.7188 16.7129 36.2618 16.7129 35.7396C16.7129 35.2174 16.9007 34.7604 17.2763 34.3688C17.6518 33.9771 18.09 33.7812 18.5908 33.7812H19.5297C19.5297 31.1701 20.1556 28.8201 21.4075 26.7313C22.6594 24.6424 24.2869 22.9451 26.29 21.6396V25.4583C26.29 25.85 26.4308 26.1927 26.7125 26.4865C26.9942 26.7802 27.3228 26.9271 27.6983 26.9271C28.1365 26.9271 28.4808 26.7802 28.7312 26.4865C28.9815 26.1927 29.1067 25.85 29.1067 25.4583V20.3667C29.6075 20.2361 30.296 20.1219 31.1724 20.024C32.0487 19.926 32.8937 19.8771 33.7075 19.8771C34.5212 19.8771 35.3663 19.926 36.2426 20.024C37.1189 20.1219 37.8075 20.2361 38.3082 20.3667V25.4583C38.3082 25.85 38.4334 26.1927 38.6838 26.4865C38.9342 26.7802 39.2784 26.9271 39.7166 26.9271C40.0922 26.9271 40.4208 26.7802 40.7025 26.4865C40.9842 26.1927 41.125 25.85 41.125 25.4583V21.6396C43.128 22.9451 44.7242 24.6424 45.9135 26.7313C47.1028 28.8201 47.6975 31.1701 47.6975 33.7812H48.6364C49.1372 33.7812 49.5753 33.9771 49.9509 34.3688C50.3265 34.7604 50.5143 35.2174 50.5143 35.7396C50.5143 36.2618 50.3265 36.7188 49.9509 37.1104C49.5753 37.5021 49.1372 37.6979 48.6364 37.6979H47.6975C47.6975 41.8757 46.383 45.3681 43.754 48.175C41.125 50.9819 37.7449 52.3854 33.6136 52.3854ZM33.6136 46.5104C36.2426 46.5104 38.3082 45.6944 39.8105 44.0625C41.3128 42.4306 42.0639 40.309 42.0639 37.6979H25.1632C25.1632 40.309 25.9144 42.4306 27.4167 44.0625C28.919 45.6944 30.9846 46.5104 33.6136 46.5104ZM61.9692 58.6521L61.7814 55.8125C61.3432 55.5514 60.8894 55.2576 60.42 54.9313C59.9505 54.6049 59.528 54.2785 59.1524 53.9521L56.7112 55.3229L54.6455 52.1896L57.0868 50.3292C56.9616 50.0681 56.899 49.8233 56.899 49.5948V48.126C56.899 47.8976 56.9616 47.6528 57.0868 47.3917L54.6455 45.5312L56.7112 42.3979L59.1524 43.7687L60.4669 42.7896C60.9051 42.4632 61.3432 42.1694 61.7814 41.9083L61.9692 39.0688H65.7249L65.9127 41.9083C66.3508 42.1694 66.789 42.4632 67.2272 42.7896L68.5417 43.7687L70.9829 42.3979L73.0485 45.5312L70.6073 47.3917C70.7325 47.6528 70.7951 47.8976 70.7951 48.126V49.5948C70.7951 49.8233 70.7325 50.0681 70.6073 50.3292L73.0485 52.1896L70.9829 55.3229L68.5417 53.9521C68.1661 54.2785 67.7436 54.6049 67.2741 54.9313C66.8047 55.2576 66.3508 55.5514 65.9127 55.8125L65.7249 58.6521H61.9692ZM63.847 52.5813C64.8486 52.5813 65.6936 52.2222 66.3821 51.5042C67.0707 50.7861 67.415 49.9049 67.415 48.8604C67.415 47.816 67.0707 46.9347 66.3821 46.2167C65.6936 45.4986 64.8486 45.1396 63.847 45.1396C62.8455 45.1396 62.0005 45.4986 61.3119 46.2167C60.6234 46.9347 60.2791 47.816 60.2791 48.8604C60.2791 49.9049 60.6234 50.7861 61.3119 51.5042C62.0005 52.2222 62.8455 52.5813 63.847 52.5813ZM72.1096 37.4042L71.2646 33.9771C70.6386 33.716 69.997 33.3569 69.3398 32.9C68.6825 32.4431 68.1348 31.9535 67.6966 31.4313L63.5654 32.9979L61.6875 29.5708L64.9737 26.8292C64.8486 26.5028 64.739 26.1438 64.6451 25.7521C64.5512 25.3604 64.5043 24.9688 64.5043 24.5771C64.5043 24.1854 64.5512 23.7937 64.6451 23.4021C64.739 23.0104 64.8486 22.6514 64.9737 22.325L61.6875 19.5833L63.5654 16.1562L67.6966 17.7229C68.1348 17.2007 68.6825 16.6948 69.3398 16.2052C69.997 15.7156 70.6386 15.3729 71.2646 15.1771L72.1096 11.75H75.6775L76.5225 15.1771C77.1485 15.3729 77.7901 15.7156 78.4474 16.2052C79.1046 16.6948 79.6523 17.2007 80.0905 17.7229L84.2218 16.1562L86.0996 19.5833L82.8134 22.325C82.9385 22.6514 83.0481 23.0104 83.142 23.4021C83.2359 23.7937 83.2828 24.1854 83.2828 24.5771C83.2828 24.9688 83.2359 25.3604 83.142 25.7521C83.0481 26.1438 82.9385 26.5028 82.8134 26.8292L86.0996 29.5708L84.2218 32.9979L80.0905 31.4313C79.6523 31.9535 79.1046 32.4431 78.4474 32.9C77.7901 33.3569 77.1485 33.716 76.5225 33.9771L75.6775 37.4042H72.1096ZM73.8936 30.2563C75.4584 30.2563 76.7573 29.7177 77.7901 28.6406C78.8229 27.5635 79.3393 26.209 79.3393 24.5771C79.3393 22.9451 78.8229 21.5906 77.7901 20.5135C76.7573 19.4365 75.4584 18.8979 73.8936 18.8979C72.3287 18.8979 71.0298 19.4365 69.997 20.5135C68.9642 21.5906 68.4478 22.9451 68.4478 24.5771C68.4478 26.209 68.9642 27.5635 69.997 28.6406C71.0298 29.7177 72.3287 30.2563 73.8936 30.2563Z" fill="#915FEE"/>
</svg>
