<svg width="95" height="98" viewBox="0 0 95 98" fill="none" xmlns="http://www.w3.org/2000/svg">
<path d="M31.6627 74.0104H43.2135V70.1312H35.3824V65.4354H43.2135V53.3896H31.6627V57.2687H39.4937V61.5563H31.6627V74.0104ZM59.6587 74.0104H63.3784V53.3896H59.6587V61.5563H55.5474V53.3896H51.8276V65.4354H59.6587V74.0104ZM82.7603 45.0187V79.625C82.7603 81.2583 82.173 82.6875 80.9983 83.9125C79.8236 85.1375 78.4532 85.75 76.887 85.75H18.0562C16.49 85.75 15.1196 85.1375 13.9449 83.9125C12.7703 82.6875 12.1829 81.2583 12.1829 79.625V45.0187C10.3557 43.3854 9.1484 41.3778 8.56107 38.9958C7.97375 36.6139 8.039 34.2319 8.75685 31.85L12.966 18.0687C13.4881 16.2313 14.4017 14.8021 15.7069 13.7812C17.0121 12.7604 18.513 12.25 20.2098 12.25H74.3419C76.1691 12.25 77.768 12.7774 79.1384 13.8323C80.5089 14.8872 81.4551 16.2993 81.9772 18.0687L86.2842 31.85C87.0021 34.2319 87.051 36.6139 86.4311 38.9958C85.8111 41.3778 84.5875 43.3854 82.7603 45.0187ZM56.3305 41.8542C58.223 41.8542 59.8218 41.2076 61.127 39.9146C62.4322 38.6215 62.9542 37.0562 62.6932 35.2188L60.246 18.375H50.4572V35.2188C50.4572 36.9882 51.0119 38.5365 52.1213 39.8635C53.2307 41.1906 54.6338 41.8542 56.3305 41.8542ZM38.0254 41.8542C39.8526 41.8542 41.4025 41.2076 42.6751 39.9146C43.9476 38.6215 44.5839 37.0562 44.5839 35.2188V18.375H34.7951L32.3479 35.2188C32.0869 36.9882 32.5437 38.5365 33.7183 39.8635C34.893 41.1906 36.3287 41.8542 38.0254 41.8542ZM20.2098 41.8542C21.776 41.8542 23.1301 41.2927 24.2721 40.1698C25.4141 39.0469 26.083 37.6688 26.2788 36.0354L28.8239 18.375H19.0351L14.5323 33.2792C13.8797 35.3889 14.1407 37.3455 15.3154 39.149C16.49 40.9524 18.1215 41.8542 20.2098 41.8542ZM74.7335 41.8542C76.8217 41.8542 78.4695 40.9694 79.6768 39.2C80.8841 37.4306 81.1614 35.4569 80.5089 33.2792L76.006 18.375H66.2172L68.7623 36.0354C68.9581 37.6688 69.627 39.0469 70.769 40.1698C71.911 41.2927 73.2325 41.8542 74.7335 41.8542ZM18.0562 79.625H76.887V47.8771C76.9522 47.9451 76.7402 47.9792 76.2507 47.9792H74.7335C73.102 47.9792 71.5521 47.6219 70.0838 46.9073C68.6154 46.1927 67.1634 45.0868 65.7277 43.5896C64.6836 44.9507 63.3784 46.0226 61.8122 46.8052C60.246 47.5878 58.5167 47.9792 56.6241 47.9792C54.6664 47.9792 52.986 47.6899 51.5829 47.1115C50.1798 46.533 48.8257 45.5632 47.5205 44.2021C46.5417 45.4271 45.3018 46.3628 43.8008 47.0094C42.2999 47.6559 40.6031 47.9792 38.7106 47.9792C36.6876 47.9792 34.893 47.6049 33.3268 46.8563C31.7606 46.1076 30.4228 45.0187 29.3134 43.5896C27.7471 45.0187 26.2136 46.1076 24.7126 46.8563C23.2117 47.6049 21.7107 47.9792 20.2098 47.9792H18.8883C18.4641 47.9792 18.1867 47.9451 18.0562 47.8771V79.625Z" fill="#915FEE"/>
</svg>
